/* XPM */
static xpm_row_t const zero_xpm[] = {
/* columns rows colors chars-per-pixel */
"18 29 2 1 ",
"  c None",
". c #FFFFFF",
/* pixels */
"  ..............  ",
" ................ ",
"................. ",
"..................",
"..................",
"..................",
"..................",
".......    .......",
".......    .......",
".......   ........",
".......   ........",
".......   ........",
".......   ........",
".......   ........",
".......   ........",
".......   ....... ",
".......   ....... ",
".......   ....... ",
".......   ....... ",
".......   ........",
".......   ........",
"..................",
"..................",
"................. ",
"................. ",
"................. ",
"................. ",
"  ..............  ",
"                  "
};
