/* XPM */
static xpm_row_t const one_xpm[] = {
/* columns rows colors chars-per-pixel */
"11 34 2 1 ",
"  c None",
". c #FFFFFF",
/* pixels */
"........   ",
".......... ",
".......... ",
".......... ",
".......... ",
".......... ",
".......... ",
"   ....... ",
"   ....... ",
"   ....... ",
"   ....... ",
"   ....... ",
"   ....... ",
"   ....... ",
"   ....... ",
"   ....... ",
"   ....... ",
"   ....... ",
"   ....... ",
"   ....... ",
"   ....... ",
"   ....... ",
"   ....... ",
"   ....... ",
"   ....... ",
"   ....... ",
"   ....... ",
"   ....... ",
"    ...... ",
"     ..... ",
"      .... ",
"       ... ",
"        .. ",
"         . "
};
