/* XPM */
static xpm_row_t const three_xpm[] = {
/* columns rows colors chars-per-pixel */
"22 28 2 1 ",
"  c None",
". c #FFFFFF",
/* pixels */
"...................   ",
"..................... ",
"..................... ",
"..................... ",
"..................... ",
"..................... ",
"..................... ",
"              ....... ",
"              ....... ",
"              ....... ",
"             ........ ",
"   .................. ",
"   .................  ",
"   ................   ",
"   ................   ",
"   .................  ",
"   .................. ",
"    ..... ..  ....... ",
"              ....... ",
"              ....... ",
"              ....... ",
"..................... ",
"..................... ",
"..................... ",
"..................... ",
"..................... ",
"....................  ",
"...................   "
};
