/* XPM */
static xpm_row_t const four_xpm[] = {
/* columns rows colors chars-per-pixel */
"22 42 2 1 ",
"  c None",
". c #FFFFFF",
/* pixels */
" .                    ",
" ..                   ",
" ...                  ",
" ....                 ",
" .....                ",
" .....                ",
" ......               ",
" .......       .......",
" .......       .......",
" .......       .......",
" .......       .......",
" .......       .......",
" .......       .......",
" .......       .......",
" .......       .......",
" .......       .......",
" .......       .......",
" .......      ........",
" .....................",
" .....................",
" .....................",
" .....................",
" .....................",
"  ....................",
"               .......",
"               .......",
"               .......",
"               .......",
"               .......",
"               .......",
"               .......",
"               .......",
"               .......",
"               .......",
"               .......",
"               .......",
"                ......",
"                 .....",
"                  ....",
"                   ...",
"                    ..",
"                     ."
};
