/* XPM */
static xpm_row_t const five_xpm[] = {
/* columns rows colors chars-per-pixel */
"22 29 2 1 ",
"  c None",
". c #FFFFFF",
/* pixels */
"..................... ",
"..................... ",
"..................... ",
"..................... ",
"..................... ",
"..................... ",
"..................... ",
".......               ",
".......               ",
".......               ",
".......               ",
"....................  ",
"..................... ",
"..................... ",
"..................... ",
"..................... ",
"..................... ",
"..................... ",
"              ....... ",
"              ....... ",
"              ....... ",
"..................... ",
"..................... ",
"..................... ",
"..................... ",
"..................... ",
"....................  ",
"....................  ",
"                      "
};
