/* XPM */
static xpm_row_t const seven_xpm[] = {
/* columns rows colors chars-per-pixel */
"18 35 2 1 ",
"  c None",
". c #FFFFFF",
/* pixels */
"................  ",
"................. ",
"................. ",
"..................",
"..................",
"..................",
"..................",
"           .......",
"           .......",
"           .......",
"           .......",
"           .......",
"           .......",
"           .......",
"           .......",
"           .......",
"           .......",
"           .......",
"           .......",
"          ........",
"          ........",
"          ........",
"          ........",
"          ........",
"          ........",
"          ........",
"          ........",
"          ........",
"           .......",
"            ......",
"             .....",
"              ....",
"               ...",
"                ..",
"                  "
};
