/* XPM */
static xpm_row_t const eight_xpm[] = {
/* columns rows colors chars-per-pixel */
"21 29 2 1 ",
"  c None",
". c #FFFFFF",
/* pixels */
"                     ",
"  .................  ",
" ................... ",
".....................",
".....................",
".....................",
".....................",
".....................",
".......       .......",
".......       .......",
".......       .......",
".......       .......",
".....................",
" ................... ",
"  .................  ",
"  .................. ",
" ....................",
".....................",
"........      .......",
".......       .......",
".......       .......",
".......       .......",
".....................",
".....................",
".....................",
".....................",
".....................",
" ................... ",
"  .................  "
};
