/* XPM */
static xpm_row_t const nine_xpm[] = {
/* columns rows colors chars-per-pixel */
"21 28 2 1 ",
"  c None",
". c #FFFFFF",
/* pixels */
"  .................  ",
".................... ",
".....................",
".....................",
".....................",
".....................",
".....................",
".......       .......",
".......       .......",
".......       .......",
".......       .......",
".....................",
".....................",
".....................",
".....................",
".....................",
" ....................",
"           . ........",
"              .......",
"              .......",
"              .......",
".....................",
".....................",
".....................",
".....................",
".....................",
".................... ",
"...................  "
};
