/* XPM */
static xpm_row_t const apple_xpm[] = {
/* columns rows colors chars-per-pixel */
"20 20 106 2 ",
"   c None",
".  c #753333",
"X  c #773232",
"o  c #763333",
"O  c #773333",
"+  c #763434",
"@  c #783333",
"#  c #305D33",
"$  c #784F2C",
"%  c #7D4F2F",
"&  c #7A512D",
"*  c #7A5B33",
"=  c #3C7742",
"-  c #833838",
";  c #843B3B",
":  c #923E3E",
">  c #A23636",
",  c #93553C",
"<  c #924040",
"1  c #974141",
"2  c #984242",
"3  c #9B4242",
"4  c #9B4343",
"5  c #9C4343",
"6  c #9D4343",
"7  c #9F4242",
"8  c #9E4343",
"9  c #9F4343",
"0  c #9B4545",
"q  c #9D4444",
"w  c #9E4444",
"e  c #9D4646",
"r  c #A04545",
"t  c #A04646",
"y  c #A94444",
"u  c #AF4545",
"i  c #A64A4A",
"p  c #AC4A4A",
"a  c #AA4C4C",
"s  c #AB4C4C",
"d  c #AD4E4E",
"f  c #BF4646",
"g  c #B35252",
"h  c #BD5858",
"j  c #C04646",
"k  c #C14747",
"l  c #D54947",
"z  c #D24848",
"x  c #D44848",
"c  c #D64949",
"v  c #D84949",
"b  c #DB4949",
"n  c #DB4A4A",
"m  c #DC4C4C",
"M  c #DC4D4D",
"N  c #DD4E4E",
"B  c #DD4F4F",
"V  c #C05A5A",
"C  c #C55D5D",
"Z  c #C75E5E",
"A  c #D95050",
"S  c #DE5151",
"D  c #DE5353",
"F  c #DF5555",
"G  c #E05656",
"H  c #E15A5A",
"J  c #E25D5D",
"K  c #CE6363",
"L  c #CF6363",
"P  c #D06464",
"I  c #D36666",
"U  c #D46767",
"Y  c #D66868",
"T  c #D76969",
"R  c #DF6B6B",
"E  c #DD6D6D",
"W  c #E36262",
"Q  c #E36363",
"!  c #E36464",
"~  c #E56767",
"^  c #E16B69",
"/  c #E56868",
"(  c #E76D6D",
")  c #E76E6E",
"_  c #E27070",
"`  c #E37070",
"'  c #E67272",
"]  c #E77373",
"[  c #E87171",
"{  c #E87272",
"}  c #E97373",
"|  c #E97474",
" . c #44804A",
".. c #45804A",
"X. c #48854E",
"o. c #5A874E",
"O. c #509355",
"+. c #58925A",
"@. c #5C955D",
"#. c #549958",
"$. c #5E9F60",
"%. c #61A563",
"&. c #6AA168",
"*. c #6DA66B",
"=. c #70AD6E",
"-. c #70B26F",
/* pixels */
"                      * o.$.@.+.X.      ",
"                      & # %.-.=.*.&...  ",
"          2 r r 2 o $         = ..#.O.  ",
"      2 d E W b c u % 2 2 2 <           ",
"    e V | J b b b l , R A c j 6         ",
"    g | | b b b b b ^ B b b b c 6       ",
"  6 _ | ( b b b b b [ b b b b b f ;     ",
"  d | | H b b b b b D b b b b b c 6     ",
"o Z | | B b b b b b b b b b b b b 6     ",
"o U | [ b b b b b b b b b b b b b 6     ",
"+ I | | D b b b b b b b b b b b c 6     ",
"o Z | | [ b b b b b b b b b b b z 6     ",
"  d | | | B b b b b b b b b b b j -     ",
"  e ' | | B b b b b b b b b b b y       ",
"  > Z | | G b b b b b b b b b c 6       ",
"    e _ | [ B b b b b b b b F p         ",
"      s ' | | ( / ! W ~ ( [ L 1         ",
"      : s _ | | | | | | | I e           ",
"          e g L T T L h i 0             ",
"              o @ o o                   "
};
