/* XPM */
static xpm_row_t const cursor_xpm[] = {
/* columns rows colors chars-per-pixel */
"25 25 24 1 ",
"  c None",
". c #095741",
"X c #125D48",
"o c #096147",
"O c #0D674C",
"+ c #016D4E",
"@ c #0F6C50",
"# c #087251",
"$ c #087E59",
"% c #137558",
"& c #137759",
"* c #13775A",
"= c #14785B",
"- c #178263",
"; c #009F66",
": c #09A26E",
"> c #0AA36F",
", c #1BA179",
"< c #1EB478",
"1 c #1FB578",
"2 c #5CBD85",
"3 c #63BA85",
"4 c #6FC38B",
"5 c #71C48C",
/* pixels */
"                         ",
"     2                   ",
"     5;                  ",
"     55;;                ",
"     554;;               ",
"     555;;;              ",
"     5555;;;             ",
"     55555;;;            ",
"     5555%><:;;          ",
"     555-@$>:<<;         ",
"     55--@o$::><1        ",
"     53-%@.$::::>1       ",
"     5--@@.$$:::::<<     ",
"     ---@@.$$$::::::1    ",
"     --&@@..$$::::>>>>   ",
"     --@@@..$$$::::>     ",
"     --@@@..$$$$>        ",
"     -%@@@..#$$$         ",
"     -@@@@O..$$++        ",
"     -@@@@@..$+++        ",
"     =@@@  ,,+++++       ",
"     @@    ,,XXXX+       ",
"            ,XXXX        ",
"            ,XX          ",
"                         "
};
