/* XPM */
static xpm_row_t const cursor_xpm[] = {
/* columns rows colors chars-per-pixel */
"36 46 160 2 ",
"   c None",
".  c #000101",
"X  c #080305",
"o  c #010C01",
"O  c #02020A",
"+  c #0C0C0C",
"@  c #150101",
"#  c #011502",
"$  c #001900",
"%  c #0C110C",
"&  c #0C0111",
"*  c #0B0B13",
"=  c #141414",
"-  c #15161A",
";  c #1A1A1A",
":  c #022402",
">  c #012D01",
",  c #013301",
"<  c #013C01",
"1  c #0F330F",
"2  c #132214",
"3  c #122C12",
"4  c #1A261A",
"5  c #242424",
"6  c #24272C",
"7  c #24282C",
"8  c #282828",
"9  c #2A2832",
"0  c #591414",
"q  c #004500",
"w  c #084607",
"e  c #004900",
"r  c #0E420E",
"t  c #025402",
"y  c #015E01",
"u  c #0C590B",
"i  c #124112",
"p  c #145214",
"a  c #1B531C",
"s  c #1E5F1E",
"d  c #21441D",
"f  c #026301",
"g  c #036E04",
"h  c #0F670F",
"j  c #0B6C0B",
"k  c #027202",
"l  c #027C02",
"z  c #126E12",
"x  c #137C13",
"c  c #285628",
"v  c #285828",
"b  c #206520",
"n  c #C50000",
"m  c #DA0000",
"M  c #EA0000",
"N  c #F50000",
"B  c #FD0000",
"V  c #FF0D0D",
"C  c #F81C1C",
"Z  c #018401",
"A  c #028C02",
"S  c #0C8B0D",
"D  c #029302",
"F  c #029C02",
"G  c #0A910A",
"H  c #128912",
"J  c #19891B",
"K  c #199B19",
"L  c #01A401",
"P  c #01AB01",
"I  c #0DA50B",
"U  c #0FAE0F",
"Y  c #13AB02",
"T  c #00B400",
"R  c #00BB00",
"E  c #0DB30D",
"W  c #0BBD0B",
"Q  c #11B101",
"!  c #15BA02",
"~  c #14A213",
"^  c #12AC11",
"/  c #14B514",
"(  c #16BC17",
")  c #19B719",
"_  c #219D21",
"`  c #28A228",
"'  c #01C401",
"]  c #08C207",
"[  c #01CC01",
"{  c #0DC20E",
"}  c #0ACE0A",
"|  c #1EC30B",
" . c #01D301",
".. c #01DC00",
"X. c #0DD60D",
"o. c #0CDD0C",
"O. c #15C016",
"+. c #1EC61F",
"@. c #12D414",
"#. c #14DF14",
"$. c #1CD61C",
"%. c #03E303",
"&. c #01EC01",
"*. c #0BE50B",
"=. c #0DE90D",
"-. c #02F402",
";. c #01F901",
":. c #00FB01",
">. c #00FC01",
",. c green",
"<. c #00FE01",
"1. c #00FF01",
"2. c #01FF01",
"3. c #01FD03",
"4. c #02FD03",
"5. c #01FE03",
"6. c #00FE02",
"7. c #03FE03",
"8. c #05FB05",
"9. c #04FF05",
"0. c #01FD02",
"q. c #0EF40E",
"w. c #0FF60F",
"e. c #07FF08",
"r. c #09FF0A",
"t. c #0AFF0B",
"y. c #0CFF0D",
"u. c #12E212",
"i. c #12EA12",
"p. c #13ED13",
"a. c #14ED13",
"s. c #13ED13",
"d. c #19E718",
"f. c #1CE51C",
"g. c #0FF510",
"h. c #17F117",
"j. c #17F117",
"k. c #13FC14",
"l. c #14FF14",
"z. c #16FF17",
"x. c #18F018",
"c. c #1BF21B",
"v. c #18F618",
"b. c #1BF41B",
"n. c #1BF61C",
"m. c #1CF51C",
"M. c #1BF51B",
"N. c #1EFD1E",
"B. c #21C522",
"V. c #21D621",
"C. c #21DD21",
"Z. c #21F621",
"A. c #22F722",
"S. c #20F920",
"D. c #21FF21",
"F. c #23FB23",
"G. c #2EF32D",
"H. c #C5D700",
"J. c #EAF600",
"K. c #FFFB00",
/* pixels */
"                                                                        ",
". 8 8 8                                                                 ",
"X o . . . + 8 8                                                         ",
"; 2.2.2.b.. . .                                                         ",
"+ 2.2.. U :.' .                                                         ",
". 2.. =.. . . .     8     8 5                                           ",
". 2.. p ..o .     8 . - v . . = - 8                                     ",
". 2.. + ....L 5 8 . # J , =.2.K . .                                     ",
". . + . , [ L . . , y.8.2.2.e.2.@.# . 9 8                               ",
"      b < [ T $ # ..N.8.-...v.2.2.:.' O . 8                             ",
"  w ` t ....T S t ..%.......*...%.;.%.} . .                             ",
". _ l ....2 T D ..*................. .-.-.. 8                           ",
". S [ ..: % . . ..m.......S.......F.R ;.2.G..                           ",
"X D ....X o o Z ..%..... .o.........R &.2.#..                           ",
"; D ..%.f.: #  .m.......d.^ . ..i...R %.r.:.o                           ",
"+ A ....u...R [ u...%...x . A ..i...R %.z.2.o                           ",
". Z  .=... .P ..%. . .*.# &.2.%.*...R -.y.2.X                           ",
". g Z / ..%.R X...' :.k.9.2...s...%.' q.2.8.O 1 v 7 7                   ",
". > l G A Z f E A 2.2.k.2.%...c.....L z &...2.( , O & ; X               ",
"  > r Z l k y y 2.&.*.&.....%.%.%.o # o 8.2.2.9.2.2.g.% . 8             ",
"      , . ' L -.%...c.......c. .. ' F &.....=.2.2.2.r.# . .             ",
"      o g  .T ............ .=.]  . .R [ ....b.......F.2.$ o .           ",
"    8 O ..i.T  ...=.......%....  ...T  ...%.........&.2.9.# .           ",
"    . : L u.R  ...n.......V.} ....Z.T  ...F...F k $...&.2.3 .           ",
"    . g P  .T  .......[ R L . ......T  ...o.T L [ X...&.2.3 O           ",
"    . k V. .T  .m.%.' L ; . { ..i...T  .*.' F ........2.R # .           ",
"    . f W  .R [ =. .L L * . X...a...T  .j.S  ...m. .9.d.4 o .           ",
"    . 1 L  .T  .%. .L G X . ....*. .R [ *.k ....i.%...2.h . . . 8       ",
"      2 L L A *... .L x . . ..a.....T o... .%.B.[ e 2.s.2.-. .-.o 8 8   ",
"      + L F l } ..R T ~ q g ..a.....R u.9. ...C.O y ..( &.J.H.q.2.. .   ",
"      . D F Z L  .%.=.' P P *.......R  .2.' ] X.I ..] S F ! F g.2.! .   ",
"      . # D l F L [ c. .L  .j.....%.' ;.2.L ^ ....[ u < . A k -.2.K.+   ",
"        . o l F L L ....' %.=.....:. .;.2.# a L L f v t . Y D Y ..%.;   ",
"          - o A T E L ....%.....;.8...&.... . o o > < o . . D Q ! ..X   ",
"            . . k B.L  ...F. .;.:.F...;.o 5         $ O   = # Q ! | o   ",
"              . * L L T  .....2.2.8. .{ O .             . = @ N B d .   ",
"                  o > j ) ....2.H =.T . +             . . @ @ N . X .   ",
"                    . . z } , . 1 o . .               . C M m N ; .     ",
"                        . . . . . . .               . . V B n . *       ",
"                                                    . V B @ . X .       ",
"                                                    . 0 . M n +         ",
"                                                      . . . . +         ",
"                                                              .         ",
"                                                                        ",
"                                                                        ",
"                                                                        "
};
