/* XPM */
static xpm_row_t const snakeheadright[] = {
/* columns rows colors chars-per-pixel */
"20 20 109 2 ",
"   c None",
".  c #374E36",
"X  c #374F36",
"o  c #384F37",
"O  c #3B533A",
"+  c #3A563A",
"@  c #3C573A",
"#  c #3F5E3F",
"$  c #405D3F",
"%  c #425C41",
"&  c #426142",
"*  c #476346",
"=  c #486547",
"-  c #486B47",
";  c #496B48",
":  c #496C49",
">  c #4A6C49",
",  c #4B6E49",
"<  c #4A6E4A",
"1  c #4C6E4B",
"2  c #4F6E4E",
"3  c #4C704B",
"4  c #4C714B",
"5  c #4D714C",
"6  c #4D724C",
"7  c #4D724D",
"8  c #4D734D",
"9  c #4E724D",
"0  c #4E734D",
"q  c #4F734E",
"w  c #4E744D",
"e  c #4F744D",
"r  c #4F744E",
"t  c #4F754E",
"y  c #50744F",
"u  c #50764F",
"i  c #50774F",
"p  c #527251",
"a  c #517550",
"s  c #527651",
"d  c #537552",
"f  c #547753",
"g  c #517850",
"h  c #527950",
"j  c #537B52",
"k  c #537D52",
"l  c #547C53",
"z  c #557954",
"x  c #567955",
"c  c #577A56",
"v  c #557E54",
"b  c #567F55",
"n  c #587B57",
"m  c #5B7F5A",
"M  c #558054",
"N  c #568154",
"B  c #578156",
"V  c #588256",
"C  c #588456",
"Z  c #588657",
"A  c #598458",
"S  c #598558",
"D  c #5A8558",
"F  c #5B8759",
"G  c #5E815D",
"H  c #5F845E",
"J  c #5C885A",
"K  c #5E8C5D",
"L  c #5F8C5D",
"P  c #5F8D5D",
"I  c #608E5E",
"U  c #61905F",
"Y  c #628A60",
"T  c #629260",
"R  c #629261",
"E  c #649462",
"W  c #649663",
"Q  c #659663",
"!  c #659763",
"~  c #639961",
"^  c #649B62",
"/  c #669864",
"(  c #679A65",
")  c #689A66",
"_  c #689B66",
"`  c #689C66",
"'  c #699C67",
"]  c #6A9D68",
"[  c #6A9E68",
"{  c #6A9F68",
"}  c #67A065",
"|  c #6BA069",
" . c #6BA169",
".. c #6BA269",
"X. c #6AA568",
"o. c #6DA66B",
"O. c #6BA869",
"+. c #6CAA6B",
"@. c #6DAC6B",
"#. c #6EA96C",
"$. c #71AF6F",
"%. c #70B06E",
"&. c #71B06F",
"*. c #71B26F",
"=. c #72B370",
"-. c #72B470",
";. c #72B570",
":. c #73B571",
">. c #73B671",
/* pixels */
"                                        ",
"p 9 3 3 3 3 9 i #                       ",
"3 i l B V v h 9 3 3 9                   ",
"' [ [ [ [ [ [ [ / D 9 3 9               ",
"[ [ [ [ [ [ [ [ [ [ [ L 9 3 <           ",
"[ | o.$.-.-.-.&.D d d 3 D D 3 3         ",
"-.-.-.-.-.-.-.@.z G * . . 9 Q w 3 O     ",
"-.-.-.-.-.-.-.X.z G = . . d Q ' i 3     ",
">.>.-.-.-.-.-.-.} B h ; 9 C | [ ) 9 9   ",
"-.-.-.-.-.-.-.-.-.-.-.-.-.-.-.' Y D 3   ",
"-.>.-.-.-.-.-.-.-.-.-.-.-.-.-.#.) T 3   ",
"-.-.-.-.-.-.-.-.-.-.-.-.-.-.-.| H L 3   ",
"-.-.-.-.-.-.-.-.&.~ C k B ^ &.[ [ w 9   ",
"-.-.-.-.-.-.-.+.d m 2 o O f Q [ v 3 &   ",
">.-.-.-.-.-.-.O.n G % . . 1 / l 3 <     ",
" .#.&.-.-.-.-.=.h z f $ < L w 3 <       ",
"[ [ [ [ | | | [ [ / / Q l 3 9           ",
"[ [ [ [ [ [ [ [ [ Q h 3 3 <             ",
"g D I T T U J h 9 3 3 -                 ",
"9 3 3 3 3 3 3 3 w @                     "
};
