/* XPM */
static xpm_row_t const snakeheadleft[] = {
/* columns rows colors chars-per-pixel */
"20 20 109 2 ",
"   c None",
".  c #374E36",
"X  c #374F36",
"o  c #384F37",
"O  c #3B533A",
"+  c #3A563A",
"@  c #3C573A",
"#  c #3F5E3F",
"$  c #405D3F",
"%  c #425C41",
"&  c #426142",
"*  c #476346",
"=  c #486547",
"-  c #486B47",
";  c #496B48",
":  c #496C49",
">  c #4A6C49",
",  c #4B6E49",
"<  c #4A6E4A",
"1  c #4C6E4B",
"2  c #4F6E4E",
"3  c #4C704B",
"4  c #4C714B",
"5  c #4D714C",
"6  c #4D724C",
"7  c #4D724D",
"8  c #4D734D",
"9  c #4E724D",
"0  c #4E734D",
"q  c #4F734E",
"w  c #4E744D",
"e  c #4F744D",
"r  c #4F744E",
"t  c #4F754E",
"y  c #50744F",
"u  c #50764F",
"i  c #50774F",
"p  c #527251",
"a  c #517550",
"s  c #527651",
"d  c #537552",
"f  c #547753",
"g  c #517850",
"h  c #527950",
"j  c #537B52",
"k  c #537D52",
"l  c #547C53",
"z  c #557954",
"x  c #567955",
"c  c #577A56",
"v  c #557E54",
"b  c #567F55",
"n  c #587B57",
"m  c #5B7F5A",
"M  c #558054",
"N  c #568154",
"B  c #578156",
"V  c #588256",
"C  c #588456",
"Z  c #588657",
"A  c #598458",
"S  c #598558",
"D  c #5A8558",
"F  c #5B8759",
"G  c #5E815D",
"H  c #5F845E",
"J  c #5C885A",
"K  c #5E8C5D",
"L  c #5F8C5D",
"P  c #5F8D5D",
"I  c #608E5E",
"U  c #61905F",
"Y  c #628A60",
"T  c #629260",
"R  c #629261",
"E  c #649462",
"W  c #649663",
"Q  c #659663",
"!  c #659763",
"~  c #639961",
"^  c #649B62",
"/  c #669864",
"(  c #679A65",
")  c #689A66",
"_  c #689B66",
"`  c #689C66",
"'  c #699C67",
"]  c #6A9D68",
"[  c #6A9E68",
"{  c #6A9F68",
"}  c #67A065",
"|  c #6BA069",
" . c #6BA169",
".. c #6BA269",
"X. c #6AA568",
"o. c #6DA66B",
"O. c #6BA869",
"+. c #6CAA6B",
"@. c #6DAC6B",
"#. c #6EA96C",
"$. c #71AF6F",
"%. c #70B06E",
"&. c #71B06F",
"*. c #71B26F",
"=. c #72B370",
"-. c #72B470",
";. c #72B570",
":. c #73B571",
">. c #73B671",
/* pixels */
"                    @ t 3 3 3 3 3 3 3 5 ",
"                - 3 3 5 j J U R R I D u ",
"            > 3 3 j Q ] ] ] ] ] ] ] ] ] ",
"          5 3 l Q ( ( ] ]  . . .] ] ] ] ",
"      > 3 t P > $ f c j =.>.>.>.>.&.#. .",
"    > 3 l ( 1 . . % G n O.>.>.>.>.>.>.>.",
"  & 3 b ] Q f O o 2 m s +.>.>.>.>.>.>.>.",
"  5 t ] ] &.^ N k Z ~ &.>.>.>.>.>.>.>.>.",
"  3 P H  .>.>.>.>.>.>.>.>.>.>.>.>.>.>.>.",
"  3 R _ #.>.>.>.>.>.>.>.>.>.>.>.>.>.>.>.",
"  3 D Y ` >.>.>.>.>.>.>.>.>.>.>.>.>.>.>.",
"  5 5 _ ]  .Z 5 ; j N } >.>.>.>.>.>.>.>.",
"    3 u ` Q s . . = G c X.>.>.>.>.>.>.>.",
"    + 3 t Q 5 . . * G c @.>.>.>.>.>.>.>.",
"        3 3 D D 3 s s D &.>.>.>.$.o. .] ",
"          > 3 5 P ] ] ] ] ] ] ] ] ] ] ] ",
"              5 3 5 D ( ] ] ] ] ] ] ] ` ",
"                  5 3 3 5 j b V N l u 3 ",
"                      # u 5 3 3 3 3 5 p ",
"                                        "
};
