/* XPM */
static xpm_row_t const snaketaildown[] = {
/* columns rows colors chars-per-pixel */
"20 20 73 1 ",
"  c None",
". c #273B27",
"X c #2A3C28",
"o c #364F34",
"O c #415F3F",
"+ c #415F41",
"@ c #426241",
"# c #436341",
"$ c #436443",
"% c #446543",
"& c #456643",
"* c #446644",
"= c #466745",
"- c #476946",
"; c #476A46",
": c #476A47",
"> c #486C46",
", c #486B48",
"< c #4B6C4A",
"1 c #4C704B",
"2 c #4C714B",
"3 c #4D714C",
"4 c #4D724C",
"5 c #4D734C",
"6 c #4D724D",
"7 c #4C754C",
"8 c #4F744D",
"9 c #517950",
"0 c #527951",
"q c #547C53",
"w c #547D53",
"e c #578055",
"r c #588156",
"t c #588357",
"y c #598458",
"u c #5C895B",
"i c #5E8B5C",
"p c #5F8D5E",
"a c #608F5E",
"s c #629160",
"d c #639361",
"f c #639461",
"g c #649462",
"h c #659663",
"j c #669764",
"k c #669864",
"l c #679965",
"z c #689A66",
"x c #689B66",
"c c #689C67",
"v c #699C67",
"b c #699D67",
"n c #699D68",
"m c #6A9E68",
"M c #6A9F68",
"N c #6BA169",
"B c #6CA36A",
"V c #6CA46A",
"C c #6DA76B",
"Z c #6EA86C",
"A c #6EA96C",
"S c #6FAA6D",
"D c #6FAC6D",
"F c #70AF6E",
"G c #71B06F",
"H c #71B16F",
"J c #71B26F",
"K c #72B270",
"L c #72B370",
"P c #72B470",
"I c #72B570",
"U c #73B571",
"Y c #73B671",
/* pixels */
"        *@+$        ",
"      831<111>      ",
"     33wlbbh91<     ",
"    8<pvNAVMMt3-    ",
"   @1uMMLYUAMMq<    ",
"   19MMNUYYUNMM38   ",
"   1dMMFUUUUFMMy1   ",
"  -3bMMLYYUUUMMj1o  ",
"  3qMMNYYYYYYVNb33  ",
"  <wvMCYYYYYYAMb81  ",
"  3ammCYYYYYUAMMw3  ",
"  <gmmFYYYYYUFMMy1  ",
"  3lMvAYYYYYUHMMi1  ",
" <3zMMFYYYYUUUMMs1  ",
" -<bMMUYYYUUULMvs<  ",
" -1bMMJYYYUUULMMh1  ",
" -1bNMLYYYYYYLmmj<  ",
" $1bbMYYYYYYYYmmj3  ",
" %1bMMYYYYYYYUMmz3X ",
" $1bvMYYYYYYYYMvz<. "
};
