/* XPM */
static xpm_row_t const snakebodyvertical[] = {
/* columns rows colors chars-per-pixel */
"20 20 28 1 ",
"  c None",
". c #4C704B",
"X c #547C52",
"o c #608F5E",
"O c #6A9E68",
"+ c #6A9F68",
"@ c #6BA069",
"# c #6BA169",
"$ c #6CA26A",
"% c #6CA36A",
"& c #6CA46A",
"* c #6DA66B",
"= c #6DA76B",
"- c #6EA76C",
"; c #6EA86C",
": c #6EA96C",
"> c #6FAB6D",
", c #6FAC6D",
"< c #70AD6E",
"1 c #70AE6E",
"2 c #71B06F",
"3 c #71B16F",
"4 c #71B26F",
"5 c #72B370",
"6 c #72B470",
"7 c #72B570",
"8 c #73B571",
"9 c #73B671",
/* pixels */
" .XXOO%9999999<OOo. ",
" .XXOO#9999999:OOo. ",
" .XXOO#9999999*OOo. ",
" .XXOO#9999999*OOo. ",
" .XXOO#9999999:OOo. ",
" .XXOO*99999992OOo. ",
" .XXOO*99999992OOo. ",
" .XXOO%9999999:OOo. ",
" .XXOOO9999999*OOo. ",
" .XXOOO9999999#OOo. ",
" .XXOOO2999999OOOo. ",
" .XXOOO,999995OOOo. ",
" .XXOOO:999992OOOo. ",
" .XXOOO-999992OOOo. ",
" .XXOOO:999992OOOo. ",
" .XXOOO<999999OOOo. ",
" .XXOOO5999999#OOo. ",
" .XXOOO9999999%OOo. ",
" .XXOO#9999999*OOo. ",
" .XXOO%9999999,OOo. "
};
