/* XPM */
static xpm_row_t const snaketurndownright[] = {
/* columns rows colors chars-per-pixel */
"20 20 57 1 ",
"  c #3B5A3B",
". c #3E5D3E",
"X c #3F5E3F",
"o c #4B714A",
"O c #4C704B",
"+ c #4D714B",
"@ c #4D714C",
"# c #4D724C",
"$ c #4D724D",
"% c #4E724C",
"& c #4E724D",
"* c #4E734D",
"= c #4E774D",
"- c #4F744E",
"; c #4F754E",
": c #50764E",
"> c #50774F",
", c #51784F",
"< c #517650",
"1 c #507750",
"2 c #517850",
"3 c #537A51",
"4 c #557E54",
"5 c #567F54",
"6 c #5A8558",
"7 c #5B8659",
"8 c #5E8B5C",
"9 c #5F8E5E",
"0 c #608F5E",
"q c #629260",
"w c #639361",
"e c #639461",
"r c #669864",
"t c #689A66",
"y c #689B66",
"u c #699C67",
"i c #699D67",
"p c #6A9D68",
"a c #6A9E68",
"s c #6A9F68",
"d c #6B9F69",
"f c #6BA069",
"g c #6BA169",
"h c #6CA36A",
"j c #6DA56B",
"k c #6DA66B",
"l c #6FAD6D",
"z c #70AD6E",
"x c #70AF6E",
"c c #71B06F",
"v c #71B16F",
"b c #72B270",
"n c #72B370",
"m c #72B470",
"M c #73B571",
"N c #73B671",
"B c None",
/* pixels */
"*@iaamNNNNNNNgaa2*BB",
"@0aakNNNNNNNNfaa:;BB",
"yaaamNNNNNNNMaaa#,BB",
"aaaxNNNNNNNNbaatO.BB",
"agvNNNNNNNNNzaaqOBBB",
"nNNNNNNNNNNNhaa5OBBB",
"NNNNNNNNNNNxaap#;BBB",
"NNNNNNNNNNvsaa9OBBBB",
"NNNNNNNNNvsaap-$BBBB",
"NNNNNNNNxaaaa7O BBBB",
"NNNNNNNcaaaaeO<BBBBB",
"NNNNNNcdaaar#@BBBBBB",
"NMbljsaaaaw#@BBBBBBB",
"faaaaaaai6O#BBBBBBBB",
"aaaaaau8*OoBBBBBBBBB",
"aaayq4+O&BBBBBBBBBBB",
"3>%OOO=BBBBBBBBBBBBB",
"#;1XBBBBBBBBBBBBBBBB",
"BBBBBBBBBBBBBBBBBBBB",
"BBBBBBBBBBBBBBBBBBBB"
};
