/* XPM */
static xpm_row_t const youLost_xpm[] = {
/* columns rows colors chars-per-pixel */
"271 53 2 1 ",
"  c #FFFFFF",
". c None",
/* pixels */
"...............................................................................................................................................................................................................................................................................",
"............................................................. .................................................................................................................................................................................................................",
".............................................................  ................................................................................................................................................................................................................",
".............................................................   ...............................................................................................................................................................................................................",
".............................................................    ..............................................................................................................................................................................................................",
".............................................................     .............................................................................................................................................................................................................",
".............................................................      ............................................................................................................................................................................................................",
".............................................................       ...........................................................................................................................................................................................................",
".............................................................        ..........................................................................................................................................................................................................",
".         ........         ......                      ......         .........        .............................         .........................                      ........                        ...                   .      .............................        .",
".         ........         .....                        .....         .........        .............................         .......................                         ......                         ...                          .............................        .",
".         ........         ....                          ....         .........        .............................         .......................                         .....                          ...                          .............................        .",
".         ........         ....                          ....         .........         ............................         .......................                          ....                          ...                          .............................        .",
".         ........         ....                           ...         .........         ............................         ......................                           ....                          ...                          .............................        .",
".         ........         ....                           ...         .........         ............................         ......................                           ...                           ...                          .............................        .",
".         ........         ....                           ...         .........         ............................         ......................                           ...                           ...                          .............................        .",
".         ........         ....                           ...         .........         ............................         ......................                           ...                           ...                          .............................        .",
".         ........         ....              ..           ...         .........         ............................         ......................              ..           ....                         .....                         ............................         .",
".         ........         ....         .........         ...         .........         ............................         ......................         .........         ....        ..............................        .....................................         .",
".         ........         ....         .........        ....         .........         ............................         ......................         .........         ....        ..............................         ....................................         .",
".        .........         ....         .........         ...         .........         ............................         ......................         .........         ....        ..............................         ....................................         .",
".        .........         ....         .........        ....         .........         ............................         ......................         .........         ....        ..............................         ....................................         .",
".                          ....         .........        ....         .........         ............................         ......................         .........         ....                       ...............         ....................................         .",
".                          ....         .........        ....         .........         ............................         ......................         .........         ....                        ..............         ....................................         .",
".                          ....         .........        ....         .........         ............................         ......................         .........         ....                         .............         ....................................         .",
".                          ....         .........        ....         .........         ............................         ......................         .........         ....                         .............         ....................................         .",
".                          ....         .........        ....         .........         ............................         ......................         .........         ....                          ............         ....................................         .",
".                          ....         .........        ....         .........         ............................         ......................         .........         ....                          ............         ....................................         .",
".                          ....         .........        ....         .........         ............................         ......................         .........         ....                          ............         ....................................         .",
"..                        .....         .........        ....         .........         ............................         ......................         .........         .....                         ............         ....................................         .",
"....                     ......         .........        ....         .........         ............................         ......................         .........         .......                       ............         ....................................         .",
"..........        .............         .........        ....         .........         ............................         ......................         .........         .....................         ............         ....................................         .",
".........         .............         .........         ...         .........         ............................         ......................         .........         .....................         ............         ....................................         .",
".........         .............         .........         ...         .........         ............................         ......................         .........         .....................         ............         ....................................         .",
".........         .............         .........         ...         .........         ............................         ......................         .........         .....................         ............         .....................................        .",
".........         .............         . ......          ...         ........          ............................                            ...          ........         ....     ............         ............         ..............................................",
"..........        .............                           ...                           ............................                            ...                           ....                          ............         ..............................................",
"..........        .............                           ...                           ............................                            ...                           ....                          ............         ..............................................",
".........         .............                           ...                           ............................                            ...                           ....                          ............         ..............................................",
".........         .............                           ...                           ............................                            ....                          ....                          ............         ..................................... .....  .",
".........         .............                          ....                           ............................                            ....                          ....                         .............         ....................................         .",
".........         ..............                         .....                          ............................                            ....                         ....                          .............         ....................................         .",
".........         ..............                        ......                          ............................                            .....                        ....                          .............         ....................................         .",
"..........        ...............                      .........                        ............................                            ......                     .......                        ..............         .....................................        .",
"..........        .............................................................         ................................................................................................................................         .....................................        .",
"...........       ..............................................................        .................................................................................................................................        ......................................       .",
"............      ...............................................................       ..................................................................................................................................       .......................................      .",
".............     .................................................................     ...................................................................................................................................      ........................................     .",
"..............    .................................................................     ....................................................................................................................................     .........................................    .",
"...............   ..................................................................    .....................................................................................................................................    ..........................................   .",
"................  ....................................................................  ......................................................................................................................................   ............................................ .",
"................. ..................................................................... .......................................................................................................................................  ..............................................",
"..............................................................................................................................................................................................................................................................................."
};
