/* XPM */
static xpm_row_t const a_xpm[] = {
/* columns rows colors chars-per-pixel */
"18 24 21 1 ",
"  c None",
". c #FFFFFF",
"X c #FFFFFF",
"o c #FFFFFF",
"O c #FFFFFF",
"+ c #FFFFFF",
"@ c #FFFFFF",
"# c #FFFFFF",
"$ c #FFFFFF",
"% c #FFFFFF",
"& c #FFFFFF",
"* c #FFFFFF",
"= c #FFFFFF",
"- c #FFFFFF",
"; c #FFFFFF",
": c #FFFFFF",
"> c #FFFFFF",
", c #FFFFFF",
"< c #FFFFFF",
"1 c #FFFFFF",
"2 c #FFFFFF",
/* pixels */
"  .X              ",
"  oOX             ",
"  oo+@            ",
" Xooo#$%%%& &*X   ",
" @oooooooooooo#&  ",
" *ooooooooooooo=  ",
" @ooooooooooooo-  ",
" *ooooooooooooo-  ",
" *oooo;****.ooo-  ",
" *oooo:    -ooo-  ",
" @oooo>,<,,Oooo-  ",
" &ooooooooooooo-  ",
"  ooooooooooooo-  ",
"  ooooooooooooo-  ",
"  ooooooooooooo-  ",
"  oooo;&**@=ooo-  ",
"  oooo:    -ooo-  ",
"  oooo:    -ooo-  ",
"  oooo:    -ooo-  ",
"  oooo:    -ooo-  ",
"  oooo:    -ooo-  ",
"  oooo:    -ooo-  ",
"           1ooo-  ",
"            &2o-  "
};
