/* XPM */
static xpm_row_t const b_xpm[] = {
/* columns rows colors chars-per-pixel */
"18 24 23 1 ",
"  c None",
". c #FFFFFF",
"X c #C0C0C0",
"o c #DFDFDF",
"O c #FFFFFF",
"+ c #FFFFFF",
"@ c #FFFFFF",
"# c #5F5F5F",
"$ c #3F3F3F",
"% c #2F2F2F",
"& c #FFFFFF",
"* c #606060",
"= c #FFFFFF",
"- c #FFFFFF",
"; c #FFFFFF",
": c #6F6F6F",
"> c #EFEFEF",
", c #FFFFFF",
"< c #202020",
"1 c #505050",
"2 c #FFFFFF",
"3 c #FFFFFF",
"4 c #101010",
/* pixels */
"                  ",
"                  ",
"                  ",
"  .XXXXXXXXXXo    ",
"  OOOOOOOOOOOO+@  ",
"  OOOOOOOOOOOOO#  ",
"  OOOOOOOOOOOOO$  ",
"  OOOOOOOOOOOOO$  ",
"  OOOO#....%OOO#  ",
"  OOOO&    $OOO$  ",
"  OOOO*XXXX+OOO=  ",
"  OOOOOOOOOOOOO-  ",
"  ;OOOOOOOOOO;:>  ",
"  ,OOOOOOOOOO<1>  ",
"  OOOOOOOOOOOOO&  ",
"  OOOO&....,OOO$  ",
"  OOOO&    OOOO$  ",
"  OOOO233334OOO$  ",
"  OOOOOOOOOOOOO$  ",
"  OOOOOOOOOOOOO$  ",
"  OOOOOOOOOOOOO-  ",
"  O;OOOOOOOOOO$>  ",
"                  ",
"                  "
};
