/* XPM */
static xpm_row_t const c_xpm[] = {/* columns rows colors chars-per-pixel */
"18 24 21 1 ",
"  c None",
". c #DFDFDF",
"X c #C0C0C0",
"o c #FFFFFF",
"O c #FFFFFF",
"+ c #9F9F9F",
"@ c #101010",
"# c #FFFFFF",
"$ c #202020",
"% c #FFFFFF",
"& c #FFFFFF",
"* c #3F3F3F",
"= c #6F6F6F",
"- c #FFFFFF",
"; c #5F5F5F",
": c #FFFFFF",
"> c #FFFFFF",
", c #909090",
"< c #FFFFFF",
"1 c #2F2F2F",
"2 c #EFEFEF",
/* pixels */
"                  ",
"                  ",
"                  ",
"   .X.oXXXXXXO    ",
"  +@##########$O  ",
"  %############&  ",
"  #############*  ",
"  #############*  ",
"  ####=ooOo%###*  ",
"  ####-    ####*  ",
"  ####-    ;***=  ",
"  ####-           ",
"  ####-           ",
"  ####-           ",
"  ####-           ",
"  ####-    &:::=  ",
"  ####-    ####*  ",
"  ####:>>>,####&  ",
"  #############&  ",
"  #############;  ",
"  %############<  ",
"  O%##########12  ",
"                  ",
"                  "
};
