/* XPM */
static xpm_row_t const d_xpm[] = {/* columns rows colors chars-per-pixel */
"18 24 15 1 ",
"  c None",
". c #DFDFDF",
"X c #C0C0C0",
"o c #FFFFFF",
"O c #FFFFFF",
"+ c #101010",
"@ c #FFFFFF",
"# c #3F3F3F",
"$ c #5F5F5F",
"% c #FFFFFF",
"& c #2F2F2F",
"* c #FFFFFF",
"= c #FFFFFF",
"- c #FFFFFF",
"; c #606060",
/* pixels */
"                  ",
"                  ",
"                  ",
"   .XXXXXXXXXo    ",
"  OOOOOOOOOOOO+o  ",
"  OOOOOOOOOOOOO@  ",
"  OOOOOOOOOOOOO#  ",
"  OOOOOOOOOOOOO#  ",
"  OOOO$%%%%&OOO#  ",
"  OOOO*    #OOO#  ",
"  =OOO*    #OOO#  ",
"  &OOO*    #OOO#  ",
"  &OOO*    #OOO#  ",
"  OOOO*    #OOO#  ",
"  -OOO*    #OOO#  ",
"  #OOO*    #OOO#  ",
"  #OOO*    #OOO#  ",
"  #OOO;XXXo&OOO#  ",
"  #OOOOOOOOOOOO#  ",
"  #OOOOOOOOOOOO#  ",
"  #OOOOOOOOOOOO$  ",
"  #OOOOOOOOOOO@.  ",
"                  ",
"                  "
};
