/* XPM */
static xpm_row_t const e_xpm[] = {/* columns rows colors chars-per-pixel */
"18 24 16 1 ",
"  c None",
". c #FFFFFF",
"X c #C0C0C0",
"o c #DFDFDF",
"O c #FFFFFF",
"+ c #FFFFFF",
"@ c #FFFFFF",
"# c #3F3F3F",
"$ c #5F5F5F",
"% c #2F2F2F",
"& c #606060",
"* c #EFEFEF",
"= c #FFFFFF",
"- c #FFFFFF",
"; c #FFFFFF",
": c #FFFFFF",
/* pixels */
"                  ",
"                  ",
"                  ",
"  .XXXXXXXXXXXXo  ",
"  O++++++++++++@  ",
"  O++++++++++++@  ",
"  +++++++++++++@  ",
"  O++++++++++++@  ",
"  #+++$........o  ",
"  %+++@           ",
"  ++++&XXXXXX*    ",
"  +++++++++++.    ",
"  +++++++++++.    ",
"  +++++++++++.    ",
"  +++++++++++.    ",
"  ++++@=.....*    ",
"  ++++-           ",
"  ++++;::::::::.  ",
"  +++++++++++++@  ",
"  +++++++++++++@  ",
"  +++++++++++++@  ",
"  O++++++++++++@  ",
"                  ",
"                  "
};
