/* XPM */
static xpm_row_t const f_xpm[] = {
/* columns rows colors chars-per-pixel */
"35 60 2 1 ",
"  c #FFFFFF",
". c None",
/* pixels */
"...................................",
"...................................",
"...................................",
"...................................",
"...................................",
"...................................",
"...................................",
"...................................",
"...................................",
"...................................",
".                              ....",
".                              ....",
".                              ....",
".                              ....",
".                              ....",
".                              ....",
".                              ....",
".                              ....",
".                              ....",
".                              ....",
".          ........................",
".          ........................",
".          ........................",
".          ........................",
".          ........................",
".                         .........",
".                         .........",
".                         .........",
".                         .........",
".                         .........",
".                         .........",
".                         .........",
".                         .........",
".                         .........",
".                         .........",
".          ........................",
".          ........................",
".          ........................",
".          ........................",
".          ........................",
".          ........................",
".          ........................",
".          ........................",
".          ........................",
".          ........................",
".          ........................",
".          ........................",
".          ........................",
".          ........................",
".          ........................",
"..         ........................",
"...        ........................",
"....       ........................",
".....      ........................",
"......     ........................",
".......    ........................",
"........   ........................",
".........  ........................",
".......... ........................",
"..................................."
};
