/* XPM */
static xpm_row_t const f_xpm[] = {/* columns rows colors chars-per-pixel */
"18 24 17 1 ",
"  c None",
". c #FFFFFF",
"X c #FFFFFF",
"o c #C0C0C0",
"O c #FFFFFF",
"+ c #FFFFFF",
"@ c #FFFFFF",
"# c #3F3F3F",
"$ c #AFAFAF",
"% c #9F9F9F",
"& c #FFFFFF",
"* c #DFDFDF",
"= c #FFFFFF",
"- c #6F6F6F",
"; c #5F5F5F",
": c #EFEFEF",
"> c #2F2F2F",
/* pixels */
"                  ",
"                  ",
"                  ",
"  .X.Xoooooooooo  ",
"  OOOOOOOOOOOOOO  ",
"  +OOOOOOOOOOOOO  ",
"  @OOOOOOOOOOOOO  ",
"  #OOOOOOOOOOOOO  ",
"  #OOO#XXXX$XX%%  ",
"  #OOO#           ",
"  OOOO&oooooo*    ",
"  OOOOOOOOOOO=    ",
"  +OOOOOOOOOO=    ",
"  @OOOOOOOOOO=    ",
"  @OOOOOOOOOO=    ",
"  #OOO@===$$=*    ",
"  +OOO-           ",
"  OOOO=           ",
"  +OOO=           ",
"  OOOO=           ",
"  OOOO=           ",
"  OOOO=           ",
"  ;OOO=           ",
"  :>OO=           "
};
