/* XPM */
static xpm_row_t const g_xpm[] = {/* columns rows colors chars-per-pixel */
"18 24 20 1 ",
"  c None",
". c #DFDFDF",
"X c #C0C0C0",
"o c #FFFFFF",
"O c #AFAFAF",
"+ c #101010",
"@ c #FFFFFF",
"# c #FFFFFF",
"$ c #EFEFEF",
"% c #FFFFFF",
"& c #9F9F9F",
"* c #FFFFFF",
"= c #2F2F2F",
"- c #5F5F5F",
"; c #FFFFFF",
": c #FFFFFF",
"> c #3F3F3F",
", c #505050",
"< c #FFFFFF",
"1 c #6F6F6F",
/* pixels */
"                  ",
"                  ",
"                  ",
"   .XoXXXXXXX.    ",
"  O+@@@@@@@@@@#$  ",
"  %@@@@@@@@@@@@&  ",
"  @@@@@@@@@@@@@*  ",
"  @@@@@@@@@@@@@*  ",
"  =@@@-;;;;=@@@*  ",
"  :@@@*    >@@@*  ",
"  :@@@&    &***;  ",
"  @@@@;           ",
"  @@@@;           ",
"  @@@@; ;@@@@@@*  ",
"  @@@@O ;@@@@@@*  ",
"  @@@@O $o;@@@@*  ",
"  @@@@*    :@@@*  ",
"  @@@@,<<<<+@@@*  ",
"  @@@@@@@@@@@@@*  ",
"  @@@@@@@@@@@@@*  ",
"  >@@@@@@@@@@@:&  ",
"  o%@@@@@@@@@@1   ",
"                  ",
"                  "
};
