/* XPM */
static xpm_row_t const h_xpm[] = {/* columns rows colors chars-per-pixel */
"18 24 18 1 ",
"  c None",
". c #FFFFFF",
"X c #FFFFFF",
"o c #FFFFFF",
"O c #101010",
"+ c #C0C0C0",
"@ c #DFDFDF",
"# c #FFFFFF",
"$ c #3F3F3F",
"% c #6F6F6F",
"& c #FFFFFF",
"* c #606060",
"= c #FFFFFF",
"- c #AFAFAF",
"; c #FFFFFF",
": c #2F2F2F",
"> c #FFFFFF",
", c #9F9F9F",
/* pixels */
"  .X              ",
"  oOX             ",
"  ooOX            ",
"  oooOX    X+++@  ",
"  oooo#    $ooo%  ",
"  oooo#    $ooo$  ",
"  oooo#    $ooo$  ",
"  oooo#    $ooo&  ",
"  oooo#    $ooo#  ",
"  oooo#    $ooo#  ",
"  oooo*=++=Oooo#  ",
"  ooooooooooooo#  ",
"  ooooooooooooo&  ",
"  ooooooooooooo$  ",
"  ooooooooooooo#  ",
"  oooo-;;;X&ooo#  ",
"  oooo#    :ooo#  ",
"  oooo#    .ooo#  ",
"  oooo#    >ooo#  ",
"  oooo#    .ooo#  ",
"  oooo#    oooo#  ",
"  $>o>,    .ooo#  ",
"           ,ooo#  ",
"            ,oo#  "
};
