/* XPM */
static xpm_row_t const i_xpm[] = {/* columns rows colors chars-per-pixel */
"18 24 11 1 ",
"  c None",
". c #FFFFFF",
"X c #C0C0C0",
"o c #DFDFDF",
"O c #3F3F3F",
"+ c #FFFFFF",
"@ c #FFFFFF",
"# c #FFFFFF",
"$ c #2F2F2F",
"% c #6F6F6F",
"& c #5F5F5F",
/* pixels */
"                  ",
"                  ",
"                  ",
"  .XXXo           ",
"  O+++@           ",
"  O+++@           ",
"  #+++@           ",
"  ++++@           ",
"  ++++@           ",
"  ++++@           ",
"  ++++@           ",
"  ++++@           ",
"  ++++@           ",
"  $+++@           ",
"  ++++@           ",
"  ++++@           ",
"  ++++@           ",
"  ++++@           ",
"  ++++@           ",
"  ++++@           ",
"  ++++@           ",
"  ++++@           ",
"  %+++@           ",
"   &++@           "
};
