/* XPM */
static xpm_row_t const i_xpm[] = {
/* columns rows colors chars-per-pixel */
"15 60 2 1 ",
"  c #FFFFFF",
". c None",
/* pixels */
"...............",
"...............",
"...............",
"...............",
"...............",
"          .....",
"          .....",
"          .....",
"          .....",
"          .....",
"          .....",
"          .....",
"          .....",
"          .....",
"          .....",
"          .....",
"          .....",
"          .....",
"          .....",
"          .....",
"          .....",
"          .....",
"          .....",
"          .....",
"          .....",
"          .....",
"          .....",
"          .....",
"          .....",
"          .....",
"          .....",
"          .....",
"          .....",
"          .....",
"          .....",
"          .....",
"          .....",
"          .....",
"          .....",
"          .....",
"          .....",
"          .....",
"          .....",
"          .....",
"          .....",
".         .....",
"..        .....",
"...       .....",
"....      .....",
".....     .....",
"......    .....",
".......   .....",
"........  .....",
"......... .....",
"...............",
"...............",
"...............",
"...............",
"...............",
"..............."
};
