/* XPM */
static xpm_row_t const j_xpm[] = {
/* columns rows colors chars-per-pixel */
"20 60 2 1 ",
"  c #FFFFFF",
". c None",
/* pixels */
"....................",
"....................",
"....................",
"....................",
"....................",
"....................",
"....................",
"....................",
"....................",
"....................",
"....................",
".....          .....",
".....          .....",
".....          .....",
".....          .....",
".....          .....",
".....          .....",
".....          .....",
".....          .....",
".....          .....",
".....          .....",
".....          .....",
".....          .....",
".....          .....",
".....          .....",
".....          .....",
".....         ......",
".....          .....",
".....          .....",
".....          .....",
".....          .....",
".....          .....",
".....          .....",
".....          .....",
".....          .....",
".....          .....",
".....          .....",
".....          .....",
".....          .....",
".....          .....",
"  ..           .....",
"               .....",
"               .....",
"               .....",
"               .....",
"               .....",
"              ......",
"              ......",
"             .......",
"            ........",
"....................",
"....................",
"....................",
"....................",
"....................",
"....................",
"....................",
"....................",
"....................",
"...................."
};
