/* XPM */
static xpm_row_t const j_xpm[] = {/* columns rows colors chars-per-pixel */
"18 24 10 1 ",
"  c None",
". c #FFFFFF",
"X c #C0C0C0",
"o c #3F3F3F",
"O c #FFFFFF",
"+ c #FFFFFF",
"@ c #FFFFFF",
"# c #202020",
"$ c #5F5F5F",
"% c #EFEFEF",
/* pixels */
"                  ",
"                  ",
"                  ",
"    .XXX.         ",
"    oOOOo         ",
"    oOOOo         ",
"    oOOOo         ",
"    oOOOo         ",
"    oOOOo         ",
"    oOOOo         ",
"    oOOOo         ",
"    oOOOo         ",
"    oOOOo         ",
"    oOOOo         ",
"    oOOOo         ",
"    oOOOo         ",
"    oOOOo         ",
"  +@#OOOo         ",
"  OOOOOOo         ",
"  OOOOOOo         ",
"  OOOOOO$         ",
"  OOOOOo%         ",
"                  ",
"                  "
};
