/* XPM */
static xpm_row_t const k_xpm[] = {/* columns rows colors chars-per-pixel */
"18 24 20 1 ",
"  c None",
". c #FFFFFF",
"X c #9F9F9F",
"o c #3F3F3F",
"O c #FFFFFF",
"+ c #2F2F2F",
"@ c #AFAFAF",
"# c #FFFFFF",
"$ c #C0C0C0",
"% c #FFFFFF",
"& c #FFFFFF",
"* c #FFFFFF",
"= c #505050",
"- c #FFFFFF",
"; c #202020",
": c #FFFFFF",
"> c #FFFFFF",
", c #EFEFEF",
"< c #5F5F5F",
"1 c #6F6F6F",
/* pixels */
"  .X              ",
"  oOX             ",
"  oOOX            ",
"  +OOO@    #$$$#  ",
"  OOOO%    oOOOo  ",
"  .OOO%    oOOOo  ",
"  &OOO%    oOOOo  ",
"  OOOO%    oOOOo  ",
"  OOOO%    oOOOo  ",
"  OOOO*    oOOOo  ",
"  OOOO=----;OOO:  ",
"  OOOOOOOOOOOOO*  ",
"  OOOOOOOOOOO&%   ",
"  OOOOOOOOOOOO>,  ",
"  OOOOOOOOOOOOO<  ",
"  OOOO*    oOOOo  ",
"  OOOO%    .OOOo  ",
"  OOOO%    OOOOo  ",
"  OOOO%    OOOO1  ",
"  OOOO%    OOOO%  ",
"  OOOO%    OOOO%  ",
"  OOOO%    OOOO%  ",
"           <OOO%  ",
"            <OO%  "
};
