/* XPM */
static xpm_row_t const l_xpm[] = {
/* columns rows colors chars-per-pixel */
"18 24 13 1 ",
"  c None",
". c #FFFFFF",
"X c #C0C0C0",
"o c #FFFFFF",
"O c #FFFFFF",
"+ c #3F3F3F",
"@ c #202020",
"# c #101010",
"$ c #FFFFFF",
"% c #FFFFFF",
"& c #FFFFFF",
"* c #FFFFFF",
"= c #FFFFFF",
/* pixels */
"                  ",
"                  ",
"                  ",
"  .XXXo           ",
"  OOOO+           ",
"  OOOO+           ",
"  OOOO+           ",
"  OOOO+           ",
"  OOOO+           ",
"  OOOO+           ",
"  OOOO+           ",
"  OOOO@           ",
"  OOOOO           ",
"  OOOOO           ",
"  OOOO#           ",
"  OOOO+           ",
"  OOOO+           ",
"  OOOO#$#@@O#@%O& ",
"  OOOOOOOOOOOOOO+ ",
"  OOOOOOOOOOOOOO+ ",
"  OOOOOOOOOOOOOO+ ",
"  OOOO*=OOOOOOOO+ ",
"                  ",
"                  "
};
