/* XPM */
static xpm_row_t const m_xpm[] = {
/* columns rows colors chars-per-pixel */
"30 24 14 1 ",
"  c None",
". c #FFFFFF",
"X c #EFEFEF",
"o c #FFFFFF",
"O c #FFFFFF",
"+ c #FFFFFF",
"@ c #C0C0C0",
"# c #FFFFFF",
"$ c #FFFFFF",
"% c #FFFFFF",
"& c #5F5F5F",
"* c #AFAFAF",
"= c #3F3F3F",
"- c #FFFFFF",
/* pixels */
"  .X                          ",
"  oOX                         ",
"  o+OX                        ",
"  o++OX                       ",
"  o+++O@@@@@@@@@@@@@@@@@@     ",
"  o++++++++++++++++++++++O    ",
"  o+++++++++++++++++++++++o   ",
"  o+++++++++++++++++++++++o   ",
"  o+++++++++++++++++++++++o   ",
"  o++++#$$$$%+++%$$$$&++++o   ",
"  o++++*    =+++=    o++++o   ",
"  o++++o    =+++=    o++++o   ",
"  o++++o    =+++=    o++++o   ",
"  o++++o    %+++=    o++++o   ",
"  o++++o    ++++=    o++++o   ",
"  o++++o    %+++=    o++++o   ",
"  o++++o    =+++=    o++++o   ",
"  o++++o    =+++=    o++++o   ",
"  o++++o    =+++=    o++++o   ",
"  o++++o    -+++=    o++++o   ",
"  o++++o    =+++=    o++++o   ",
"  o++++o    =+++=    o++++o   ",
"  o++++o    =+++=    o++++o   ",
"                      &+++o   "
};
