/* XPM */
static xpm_row_t const n_xpm[] = {
/* columns rows colors chars-per-pixel */
"18 24 15 1 ",
"  c None",
". c #FFFFFF",
"X c #2F2F2F",
"o c #9F9F9F",
"O c #FFFFFF",
"+ c #AFAFAF",
"@ c #FFFFFF",
"# c #101010",
"$ c #FFFFFF",
"% c #C0C0C0",
"& c #3F3F3F",
"* c #FFFFFF",
"= c #5F5F5F",
"- c #FFFFFF",
"; c #FFFFFF",
/* pixels */
" .                ",
" Xo               ",
" OOo              ",
" OOO+             ",
" @OO#$%%%%%%.     ",
" &OOOOOOOOOOOO+   ",
" @OOOOOOOOOOOO*   ",
" XOOOOOOOOOOOO&   ",
" OOOOOOOOOOOOO&   ",
" OOOO=----&OOO&   ",
" OOOO;    &OOO&   ",
" OOOO;    &OOO&   ",
" OOOO;    &OOO&   ",
" OOOO;    &OOO&   ",
" OOOO;    &OOO&   ",
" OOOO;    &OOO&   ",
" OOOO;    =OOO&   ",
" OOOO;    =OOO&   ",
" OOOO;    &OOO&   ",
" OOOO;    &OOO;   ",
" OOOO;    &OOO;   ",
" OOOO;    &OOO;   ",
" OOOO;    &OOO;   ",
"          oOOO;   "
};
