/* XPM */
static xpm_row_t const o_xpm[] = {
/* columns rows colors chars-per-pixel */
"18 24 20 1 ",
"  c None",
". c #DFDFDF",
"X c #FFFFFF",
"o c #C0C0C0",
"O c #9F9F9F",
"+ c #FFFFFF",
"@ c #101010",
"# c #EFEFEF",
"$ c #FFFFFF",
"% c #6F6F6F",
"& c #3F3F3F",
"* c #5F5F5F",
"= c #FFFFFF",
"- c #2F2F2F",
"; c #FFFFFF",
": c #FFFFFF",
"> c #FFFFFF",
", c #FFFFFF",
"< c #202020",
"1 c #FFFFFF",
/* pixels */
"                  ",
"                  ",
"                  ",
"                  ",
"  .Xooooooooo     ",
" O+++++++++++@#   ",
" $++++++++++++%   ",
" +++++++++++++&   ",
" +++++++++++++&   ",
" ++++*==X=-+++&   ",
" ++++;    &+++&   ",
" ++++;    :+++&   ",
" ++++;    &+++&   ",
" ++++;    &+++&   ",
" ++++;    &+++&   ",
" ++++;    &+++&   ",
" ++++;    &+++&   ",
" ++++;    &+++&   ",
" ++++>;,,,<+++&   ",
" +++++++++++++&   ",
" +++++++++++++&   ",
" -++++++++++++%   ",
" X1++++1&-++1*#   ",
"                  "
};
