/* XPM */
static xpm_row_t const p_xpm[] = {
/* columns rows colors chars-per-pixel */
"18 24 15 1 ",
"  c None",
". c #FFFFFF",
"X c #C0C0C0",
"o c #EFEFEF",
"O c #FFFFFF",
"+ c #FFFFFF",
"@ c #202020",
"# c #AFAFAF",
"$ c #3F3F3F",
"% c #2F2F2F",
"& c #FFFFFF",
"* c #FFFFFF",
"= c #5F5F5F",
"- c #FFFFFF",
"; c #6F6F6F",
/* pixels */
"                  ",
"                  ",
"                  ",
"                  ",
" .XXXXXXXXX..o    ",
" O+++++++++++@#   ",
" +++++++++++++$   ",
" +++++++++++++$   ",
" +++++++++++++$   ",
" ++++%.&&&%+++$   ",
" ++++$    $+++$   ",
" ++++*XXX&*+++$   ",
" +++++++++++++$   ",
" +++++++++++++$   ",
" +++++++++++++=   ",
" ++++++++++++%.   ",
" ++++-            ",
" ++++-            ",
" ++++-            ",
" ++++-            ",
" ++++-            ",
" ++++-            ",
" ++++-            ",
" ;+++-            "
};
