/* XPM */
static xpm_row_t const q_xpm[] = {
/* columns rows colors chars-per-pixel */
"18 24 17 1 ",
"  c None",
". c #DFDFDF",
"X c #C0C0C0",
"o c #EFEFEF",
"O c #FFFFFF",
"+ c #FFFFFF",
"@ c #101010",
"# c #FFFFFF",
"$ c #5F5F5F",
"% c #FFFFFF",
"& c #FFFFFF",
"* c #FFFFFF",
"= c #FFFFFF",
"- c #3F3F3F",
"; c #2F2F2F",
": c #AFAFAF",
"> c #9F9F9F",
/* pixels */
"                  ",
"                  ",
"                  ",
"                  ",
"  .XXXXXXXXXXo    ",
" O+++++++++++@#   ",
" +++++++++++++O   ",
" +++++++++++++O   ",
" +++++++++++++O   ",
" ++++$%%%%++++O   ",
" ++++O    ++++O   ",
" ++++O    ++++O   ",
"o++++O    ++++O   ",
" ++++O    ++++O   ",
" ++++O    ++++O   ",
" ++++O    ++++O   ",
" ++++O    ++++O   ",
"o++++O    ++++O   ",
" ++++&****++++O   ",
" +++++++++++++O   ",
" +++++++++++++O   ",
" =++++++++++++O   ",
" #-;------++++O   ",
"          :+++>   "
};
