/* XPM */
static xpm_row_t const r_xpm[] = {
/* columns rows colors chars-per-pixel */
"18 24 20 1 ",
"  c None",
". c #FFFFFF",
"X c #3F3F3F",
"o c #9F9F9F",
"O c #FFFFFF",
"+ c #909090",
"@ c #C0C0C0",
"# c #FFFFFF",
"$ c #202020",
"% c #FFFFFF",
"& c #2F2F2F",
"* c #505050",
"= c #FFFFFF",
"- c #FFFFFF",
"; c #FFFFFF",
": c #FFFFFF",
"> c #DFDFDF",
", c #6F6F6F",
"< c #5F5F5F",
"1 c #FFFFFF",
/* pixels */
" .                ",
" Xo               ",
" XOo              ",
" XOOo             ",
" XOOO+@@@@@@#     ",
" XOOOOOOOOOOO$.   ",
" XOOOOOOOOOOOO%   ",
" XOOOOOOOOOOOOX   ",
" XOOOOOOOOOOOOX   ",
" XOOO&####&OOOX   ",
" XOOOX    XOOOX   ",
" XOOO*===+$OOOX   ",
" XOOOOOOOOOOOO-   ",
" XOOOOOOOOOO;-    ",
" XOOOOOOOOOOO:>   ",
" &OOOOOOOOOOOO,   ",
" OOOO-    XOOOX   ",
" OOOO-    XOOOX   ",
" OOOO-    XOOO%   ",
" OOOO-    XOOO<   ",
" OOOO-    XOOO-   ",
" OOOO-    1OOO-   ",
" ;OOO-    1OOO-   ",
"          oOOO-   "
};
