/* XPM */
static xpm_row_t const s_xpm[] = {
/* columns rows colors chars-per-pixel */
"18 24 21 1 ",
"  c None",
". c #DFDFDF",
"X c #C0C0C0",
"o c #9F9F9F",
"O c #FFFFFF",
"+ c #FFFFFF",
"@ c #FFFFFF",
"# c #5F5F5F",
"$ c #FFFFFF",
"% c #FFFFFF",
"& c #606060",
"* c #FFFFFF",
"= c #EFEFEF",
"- c #101010",
"; c #FFFFFF",
": c #3F3F3F",
"> c #FFFFFF",
", c #909090",
"< c #202020",
"1 c #AFAFAF",
"2 c #6F6F6F",
/* pixels */
"                  ",
"                  ",
"                  ",
"                  ",
"  .XXXXXXXXXXX.   ",
" oOOOOOOOOOOOO+   ",
" @OOOOOOOOOOOO+   ",
" OOOOOOOOOOOOO+   ",
" OOOOOOOOOOOOO+   ",
" OOOO#$$$$$$$$.   ",
" OOOO%            ",
" OOOO&XXXX*XX=    ",
" OOOOOOOOOOOO-.   ",
" OOOOOOOOOOOOO+   ",
" ;OOOOOOOOOOOO+   ",
" $;OOOOOOOOOOO+   ",
"          :OOO+   ",
"          :OOO+   ",
" +>>,>>>>><OOO+   ",
" OOOOOOOOOOOOO+   ",
" OOOOOOOOOOOOO+   ",
" OOOOOOOOOOOOO1   ",
" OOOOOOOOOOOO2    ",
"                  "
};
