/* XPM */
static xpm_row_t const t_xpm[] = {
/* columns rows colors chars-per-pixel */
"18 24 11 1 ",
"  c None",
". c #FFFFFF",
"X c #C0C0C0",
"o c #DFDFDF",
"O c #EFEFEF",
"+ c #FFFFFF",
"@ c #FFFFFF",
"# c #5F5F5F",
"$ c #6F6F6F",
"% c #FFFFFF",
"& c #FFFFFF",
/* pixels */
"                  ",
"                  ",
"                  ",
"                  ",
" .XXXXXXXXo OXo   ",
" +++++++++++++@   ",
" +++++++++++++@   ",
" +++++++++++++@   ",
" +++++++++++++@   ",
" ....#++++....o   ",
"     @++++        ",
"     @++++        ",
"     @++++        ",
"     @++++        ",
"     @++++        ",
"     @++++        ",
"     @++++        ",
"     @++++        ",
"     @++++        ",
"     @++++        ",
"     @++++        ",
"     @++++        ",
"     $++++        ",
"     %&+++        "
};
