/* XPM */
static xpm_row_t const u_xpm[] = {/* columns rows colors chars-per-pixel */
"18 24 19 1 ",
"  c None",
". c #FFFFFF",
"X c #FFFFFF",
"o c #FFFFFF",
"O c #101010",
"+ c #AFAFAF",
"@ c #C0C0C0",
"# c #DFDFDF",
"$ c #FFFFFF",
"% c #3F3F3F",
"& c #FFFFFF",
"* c #FFFFFF",
"= c #2F2F2F",
"- c #FFFFFF",
"; c #FFFFFF",
": c #909090",
"> c #FFFFFF",
", c #202020",
"< c #9F9F9F",
/* pixels */
" .                ",
" X.               ",
" oO.              ",
" ooO.             ",
" oooO+    .@@@#   ",
" oooo$    %ooo&   ",
" oooo&    %ooo*   ",
" oooo&    %ooo%   ",
" oooo&    =ooo%   ",
" oooo&    oooo%   ",
" oooo&    oooo%   ",
" oooo&    -ooo%   ",
" oooo&    oooo%   ",
" oooo&    oooo%   ",
" oooo&    oooo%   ",
" oooo&    =ooo%   ",
" oooo&    %ooo%   ",
" oooo&    %ooo%   ",
" oooo;:>>:,ooo%   ",
" ooooooooooooo%   ",
" ooooooooooooo%   ",
" %oooooooooooo%   ",
" .=ooooooooooo%   ",
"          <ooo%   "
};
