/* XPM */
static xpm_row_t const v_xpm[] = {/* columns rows colors chars-per-pixel */
"18 24 16 1 ",
"  c None",
". c #FFFFFF",
"X c #C0C0C0",
"o c #DFDFDF",
"O c #FFFFFF",
"+ c #FFFFFF",
"@ c #9F9F9F",
"# c #FFFFFF",
"$ c #FFFFFF",
"% c #3F3F3F",
"& c #FFFFFF",
"* c #202020",
"= c #FFFFFF",
"- c #FFFFFF",
"; c #2F2F2F",
": c #EFEFEF",
/* pixels */
"                  ",
"                  ",
"                  ",
"                  ",
" .XXXo    OXX+@   ",
" ####$    %###%   ",
" ####$    %###%   ",
" ####$    %###%   ",
" ####$    %###%   ",
" ####$    %###%   ",
" ####$    %###%   ",
" ####$    %###%   ",
" ####$    %###%   ",
" ####$    %###%   ",
" ####$    %###%   ",
" ####$    %###%   ",
" ####$    %###%   ",
" ####$    %###%   ",
" ####&++++*###%   ",
" #############%   ",
" #############%   ",
" =############-   ",
" O;##########%:   ",
"                  "
};
