/* XPM */
static xpm_row_t const w_xpm[] = {
/* columns rows colors chars-per-pixel */
"55 60 2 1 ",
"  c #FFFFFF",
". c None",
/* pixels */
".......................................................",
".......................................................",
".......................................................",
".......................................................",
".......................................................",
".......................................................",
".......................................................",
".......................................................",
".......................................................",
".......................................................",
".......................................................",
"          .........           .........          ......",
"          .........           .........          ......",
"          .........           .........          ......",
"          .........           .........          ......",
"          .........           .........          ......",
"          .........           .........          ......",
"          .........           .........          ......",
"          .........           .........          ......",
"          .........           .........          ......",
"          .........           .........          ......",
"          .........           .........          ......",
"          .........           .........          ......",
"          .........           .........          ......",
"          ..........          .........          ......",
"          .........           .........          ......",
"          ..........          .........          ......",
"          ..........          .........          ......",
"          ..........          .........          ......",
"          ..........          .........          ......",
"          ..........          .........          ......",
"          ..........          .........          ......",
"          ..........          .........          ......",
"          ..........          .........          ......",
"          ..........          .........          ......",
"          ..........          .........          ......",
"          ..........          .........          ......",
"          ..........          .........          ......",
"          ..........          .........          ......",
"          ..........          .........          ......",
"                                                 ......",
"                                                 ......",
"                                                 ......",
"                                                 ......",
"                                                 ......",
"                                                 ......",
"                                                 ......",
".                       .                        ......",
".                      ...                      .......",
"...                   ......                  .........",
".......................................................",
".......................................................",
".......................................................",
".......................................................",
".......................................................",
".......................................................",
".......................................................",
".......................................................",
".......................................................",
"......................................................."
};
