/* XPM */
static xpm_row_t const w_xpm[] = {
/* columns rows colors chars-per-pixel */
"30 24 20 1 ",
"  c None",
". c #EFEFEF",
"X c #FFFFFF",
"o c #C0C0C0",
"O c #DFDFDF",
"+ c #FFFFFF",
"@ c #FFFFFF",
"# c #FFFFFF",
"$ c #606060",
"% c #FFFFFF",
"& c #FFFFFF",
"* c #909090",
"= c #FFFFFF",
"- c #5F5F5F",
"; c #FFFFFF",
": c #9F9F9F",
"> c #FFFFFF",
", c #FFFFFF",
"< c #3F3F3F",
"1 c #6F6F6F",
/* pixels */
"                              ",
"                              ",
"                              ",
"                              ",
"  .Xooo.   .ooooO    XoooO    ",
"  X++++O   X++++@    ++++@    ",
"  X++++#   X++++@    ++++@    ",
"  X++++X   X++++@    ++++@    ",
"  X++++X   X++++@    ++++@    ",
"  X++++X   X++++@    ++++@    ",
"  X++++X   X++++@    ++++@    ",
"  X++++X   X++++@    ++++@    ",
"  X++++X   X++++@    ++++@    ",
"  X++++#   X++++@    ++++@    ",
"  X++++    X++++@    ++++@    ",
"  X++++X   X++++@    ++++@    ",
"  X++++X   X++++@    ++++@    ",
"  X++++X   X++++@    ++++@    ",
"  X++++$%%%$++++&%%%*++++@    ",
"  X++++++++++++++++++++++@    ",
"  X++++++++++++++++++++++@    ",
"  O++++++++++=-++++++++++;    ",
"   :++++++++>X.,<+=<+++>1.    ",
"                              "
};
