/* XPM */
static xpm_row_t const x_xpm[] = {
/* columns rows colors chars-per-pixel */
"18 24 20 1 ",
"  c None",
". c #9F9F9F",
"X c #FFFFFF",
"o c #101010",
"O c #FFFFFF",
"+ c #2F2F2F",
"@ c #FFFFFF",
"# c #3F3F3F",
"$ c #FFFFFF",
"% c #FFFFFF",
"& c #606060",
"* c #C0C0C0",
"= c #FFFFFF",
"- c #5F5F5F",
"; c #EFEFEF",
": c #6F6F6F",
"> c #202020",
", c #FFFFFF",
"< c #FFFFFF",
"1 c #FFFFFF",
/* pixels */
" .                ",
" X.               ",
" XX.              ",
" XXoO             ",
" +XXoO            ",
" XXXX@    #XXX#   ",
" XXXX@    #XXX#   ",
" $XXX@    #XXX#   ",
" #XXX@    #XXX#   ",
" $XXX@    #XXX#   ",
" %XXX@    #XXX#   ",
" #XXX&*=*O#XXX#   ",
" -XXXXXXXXXXXX.   ",
" ;-%XXXXXXXX+:    ",
" O>XXXXXXXXXX,;   ",
" #XXXXXXXXXXXX@   ",
" XXXX-<<<<+XXX1   ",
" XXXX@    #XXX#   ",
" XXXX@    #XXX1   ",
" XXXX@    #XXX#   ",
" XXXX@    #XXX@   ",
" XXXX@    #XXX@   ",
" XXXX@    #XXX@   ",
"          .XXX@   "
};
