/* XPM */
static xpm_row_t const y_xpm[] = {
/* columns rows colors chars-per-pixel */
"18 24 20 1 ",
"  c None",
". c #FFFFFF",
"X c #FFFFFF",
"o c #C0C0C0",
"O c #DFDFDF",
"+ c #FFFFFF",
"@ c #FFFFFF",
"# c #3F3F3F",
"$ c #FFFFFF",
"% c #9F9F9F",
"& c #5F5F5F",
"* c #FFFFFF",
"= c #FFFFFF",
"- c #FFFFFF",
"; c #909090",
": c #6F6F6F",
"> c #FFFFFF",
", c #FFFFFF",
"< c #EFEFEF",
"1 c #202020",
/* pixels */
"                  ",
"                  ",
"                  ",
"                  ",
" ..XoO    XoooO   ",
" ++++@    ++++@   ",
" ++++@    ++++@   ",
" ++++@    ++++#   ",
" ++++$    ++++#   ",
" ++++%    ++++&   ",
" ++++X    ++++*   ",
" ++++=--;;++++:   ",
" +++++++++++++*   ",
" +++++++++++++@   ",
" >++++++++++++@   ",
" %>++++++++++,<   ",
"     @++++<XO     ",
"     @+++1        ",
"     @++++        ",
"     @++++        ",
"     @++++        ",
"     @++++        ",
"     @++++        ",
"     .>+++        "
};
