/* XPM */
static xpm_row_t const z_xpm[] = {
/* columns rows colors chars-per-pixel */
"18 24 18 1 ",
"  c None",
". c #FFFFFF",
"X c #C0C0C0",
"o c #FFFFFF",
"O c #3F3F3F",
"+ c #FFFFFF",
"@ c #FFFFFF",
"# c #FFFFFF",
"$ c #FFFFFF",
"% c #FFFFFF",
"& c #FFFFFF",
"* c #202020",
"= c #5F5F5F",
"- c #2F2F2F",
"; c #FFFFFF",
": c #FFFFFF",
"> c #606060",
", c #FFFFFF",
/* pixels */
"                  ",
"                  ",
"                  ",
"                  ",
" .XXXXXXXXXXXX.   ",
" oooooooooooooO   ",
" oooooooooooooO   ",
" oooooooooooooO   ",
" +ooooooooooooO   ",
"  @.......OoooO   ",
"          #oooO   ",
" $%%%%%%%&*ooo#   ",
" ooooooooooooo=   ",
" -ooooooooooooO   ",
" OooooooooooooO   ",
" oooooooooooooO   ",
" oooo$            ",
" oooo$            ",
" oooo;%%%:%;>%,   ",
" oooooooooooooO   ",
" oooooooooooooO   ",
" oooooooooooooO   ",
" oooooooooooooO   ",
"                  "
};
